<?xml version="1.0" encoding="UTF-8" standalone="no"?>
<!-- Created with Inkscape (http://www.inkscape.org/) -->

<svg xmlns:dc="http://purl.org/dc/elements/1.1/" xmlns:cc="http://creativecommons.org/ns#" xmlns:rdf="http://www.w3.org/1999/02/22-rdf-syntax-ns#" xmlns:svg="http://www.w3.org/2000/svg" xmlns="http://www.w3.org/2000/svg" xmlns:sodipodi="http://sodipodi.sourceforge.net/DTD/sodipodi-0.dtd" xmlns:inkscape="http://www.inkscape.org/namespaces/inkscape" width="121.26997mm" height="14.374284mm" viewBox="0 0 429.69676 50.932501" id="svg7791" version="1.1" inkscape:version="0.91 r13725" sodipodi:docname="trex-logo.svg">
  <defs id="defs7793" />
  <sodipodi:namedview id="base" pagecolor="#ffffff" bordercolor="#666666" borderopacity="1.0" inkscape:pageopacity="0.0" inkscape:pageshadow="2" inkscape:zoom="0.35" inkscape:cx="-117.29448" inkscape:cy="31.180535" inkscape:document-units="px" inkscape:current-layer="layer1" showgrid="false" fit-margin-top="0" fit-margin-left="0" fit-margin-right="0" fit-margin-bottom="0" inkscape:window-width="1920" inkscape:window-height="1000" inkscape:window-x="1920" inkscape:window-y="27" inkscape:window-maximized="1" />
  <metadata id="metadata7796">
    <rdf:RDF>
      <cc:Work rdf:about="">
        <dc:format>image/svg+xml</dc:format>
        <dc:type rdf:resource="http://purl.org/dc/dcmitype/StillImage" />
        <dc:title></dc:title>
      </cc:Work>
    </rdf:RDF>
  </metadata>
  <g inkscape:label="Layer 1" inkscape:groupmode="layer" id="layer1" transform="translate(-59.437339,-512.61024)">
    <g id="g20" transform="matrix(1.25,0,0,-1.25,191.13371,548.54786)">
      <path d="m 0,0 1.556,1.784 c 3.526,-3.25 6.777,-4.759 11.492,-4.759 4.805,0 8.102,2.699 8.102,6.361 l 0,0.092 c 0,3.388 -1.784,5.358 -9.064,6.822 -7.69,1.555 -10.803,4.167 -10.803,9.018 l 0,0.093 c 0,4.762 4.348,8.423 10.3,8.423 4.668,0 7.736,-1.281 10.986,-3.892 l -1.511,-1.877 c -3.02,2.611 -6.042,3.619 -9.568,3.619 -4.714,0 -7.826,-2.705 -7.826,-6.044 l 0,-0.093 c 0,-3.386 1.736,-5.448 9.337,-7.005 7.418,-1.509 10.53,-4.165 10.53,-8.834 l 0,-0.092 c 0,-5.173 -4.44,-8.744 -10.62,-8.744 C 7.781,-5.128 3.847,-3.434 0,0" style="fill:#434648;fill-opacity:1;fill-rule:nonzero;stroke:none" id="path22" inkscape:connector-curvature="0" />
    </g>
    <g id="g24" transform="matrix(1.25,0,0,-1.25,252.82572,539.90774)">
      <path d="m 0,0 0,0.09 c 0,6.137 -4.258,10.074 -9.157,10.074 -4.852,0 -9.52,-4.075 -9.52,-10.026 l 0,-0.093 c 0,-5.997 4.668,-10.026 9.52,-10.026 C -4.075,-9.981 0,-6.271 0,0 m -20.785,11.766 2.243,0 0,-5.221 c 2.015,3.07 4.99,5.769 9.616,5.769 5.631,0 11.352,-4.531 11.352,-12.131 l 0,-0.093 c 0,-7.599 -5.721,-12.222 -11.352,-12.222 -4.672,0 -7.691,2.654 -9.616,5.586 l 0,-12.362 -2.243,0 0,30.674 z" style="fill:#434648;fill-opacity:1;fill-rule:nonzero;stroke:none" id="path26" inkscape:connector-curvature="0" />
    </g>
    <path d="m 261.80884,517.59149 3.49,0 0,-3.8375 -3.49,0 0,3.8375 z m 0.345,36.795 2.80625,0 0,-29.18625 -2.80625,0 0,29.18625 z" style="fill:#434648;fill-opacity:1;fill-rule:nonzero;stroke:none" id="path28" inkscape:connector-curvature="0" />
    <g id="g30" transform="matrix(1.25,0,0,-1.25,273.14372,525.20074)">
      <path d="m 0,0 2.243,0 0,-6.639 c 1.832,4.165 5.724,7.188 10.347,7.005 l 0,-2.47 -0.231,0 c -5.4,0 -10.116,-4.076 -10.116,-11.676 l 0,-9.569 -2.243,0 L 0,0 Z" style="fill:#434648;fill-opacity:1;fill-rule:nonzero;stroke:none" id="path32" inkscape:connector-curvature="0" />
    </g>
    <g id="g34" transform="matrix(1.25,0,0,-1.25,313.25959,543.45637)">
      <path d="m 0,0 0,2.656 c -1.97,0.504 -4.578,1.053 -7.921,1.053 -4.944,0 -7.688,-2.198 -7.688,-5.448 l 0,-0.09 c 0,-3.391 3.202,-5.358 6.773,-5.358 C -4.074,-7.187 0,-4.258 0,0 m -17.992,-1.968 0,0.091 c 0,4.852 4.167,7.601 10.209,7.601 3.253,0 5.495,-0.413 7.738,-1.008 l 0,1.008 c 0,4.714 -2.884,7.141 -7.693,7.141 -2.837,0 -5.172,-0.779 -7.325,-1.877 l -0.822,1.968 c 2.564,1.19 5.079,2.015 8.287,2.015 3.158,0 5.676,-0.869 7.37,-2.564 1.556,-1.556 2.381,-3.709 2.381,-6.594 l 0,-14.556 -2.198,0 0,3.891 c -1.601,-2.243 -4.485,-4.44 -8.929,-4.44 -4.347,0 -9.018,2.471 -9.018,7.324" style="fill:#434648;fill-opacity:1;fill-rule:nonzero;stroke:none" id="path36" inkscape:connector-curvature="0" />
    </g>
    <path d="m 323.56259,512.61024 2.80375,0 0,41.77625 -2.80375,0 0,-41.77625 z" style="fill:#434648;fill-opacity:1;fill-rule:nonzero;stroke:none" id="path38" inkscape:connector-curvature="0" />
    <g id="g40" transform="matrix(1.25,0,0,-1.25,338.32672,548.54786)">
      <path d="m 0,0 1.559,1.784 c 3.523,-3.25 6.776,-4.759 11.49,-4.759 4.806,0 8.101,2.699 8.101,6.361 l 0,0.092 c 0,3.388 -1.784,5.358 -9.063,6.822 -7.691,1.555 -10.804,4.167 -10.804,9.018 l 0,0.093 c 0,4.762 4.348,8.423 10.3,8.423 4.671,0 7.738,-1.281 10.988,-3.892 l -1.51,-1.877 c -3.023,2.611 -6.042,3.619 -9.569,3.619 -4.716,0 -7.828,-2.705 -7.828,-6.044 l 0,-0.093 c 0,-3.386 1.739,-5.448 9.34,-7.005 7.415,-1.509 10.53,-4.165 10.53,-8.834 l 0,-0.092 c 0,-5.173 -4.443,-8.744 -10.623,-8.744 C 7.783,-5.128 3.847,-3.434 0,0" style="fill:#434648;fill-opacity:1;fill-rule:nonzero;stroke:none" id="path42" inkscape:connector-curvature="0" />
    </g>
    <g id="g44" transform="matrix(1.25,0,0,-1.25,375.58509,546.89011)">
      <path d="m 0,0 0,15.291 -3.388,0 0,2.06 3.388,0 0,7.462 2.243,0 0,-7.462 8.195,0 0,-2.06 -8.195,0 0,-15.062 c 0,-3.342 1.97,-4.533 4.671,-4.533 1.143,0 2.107,0.231 3.434,0.825 l 0,-2.105 C 9.157,-6.135 8.012,-6.408 6.546,-6.408 2.93,-6.408 0,-4.441 0,0" style="fill:#434648;fill-opacity:1;fill-rule:nonzero;stroke:none" id="path46" inkscape:connector-curvature="0" />
    </g>
    <g id="g48" transform="matrix(1.25,0,0,-1.25,414.15684,543.45637)">
      <path d="m 0,0 0,2.656 c -1.968,0.504 -4.579,1.053 -7.92,1.053 -4.943,0 -7.692,-2.198 -7.692,-5.448 l 0,-0.09 c 0,-3.391 3.207,-5.358 6.775,-5.358 C -4.075,-7.187 0,-4.258 0,0 m -17.991,-1.968 0,0.091 c 0,4.852 4.165,7.601 10.21,7.601 3.247,0 5.49,-0.413 7.735,-1.008 l 0,1.008 c 0,4.714 -2.884,7.141 -7.69,7.141 -2.84,0 -5.173,-0.779 -7.326,-1.877 l -0.824,1.968 c 2.564,1.19 5.082,2.015 8.287,2.015 3.158,0 5.676,-0.869 7.37,-2.564 1.557,-1.556 2.381,-3.709 2.381,-6.594 l 0,-14.556 -2.198,0 0,3.891 c -1.603,-2.243 -4.488,-4.44 -8.929,-4.44 -4.347,0 -9.016,2.471 -9.016,7.324" style="fill:#434648;fill-opacity:1;fill-rule:nonzero;stroke:none" id="path50" inkscape:connector-curvature="0" />
    </g>
    <path d="m 424.46134,525.20024 2.80625,0 0,29.18625 -2.80625,0 0,-29.18625 z m -0.34625,-11.44625 3.49,0 0,3.83375 -3.49,0 0,-3.83375 z" style="fill:#434648;fill-opacity:1;fill-rule:nonzero;stroke:none" id="path52" inkscape:connector-curvature="0" />
    <g id="g54" transform="matrix(1.25,0,0,-1.25,435.44834,525.20074)">
      <path d="m 0,0 2.243,0 0,-6.639 c 1.832,4.165 5.721,7.188 10.347,7.005 l 0,-2.47 -0.231,0 C 6.957,-2.104 2.243,-6.18 2.243,-13.78 l 0,-9.569 -2.243,0 L 0,0 Z" style="fill:#434648;fill-opacity:1;fill-rule:nonzero;stroke:none" id="path56" inkscape:connector-curvature="0" />
    </g>
    <g id="g58" transform="matrix(1.25,0,0,-1.25,452.95934,550.72436)">
      <path d="m 0,0 1.328,1.787 c 2.564,-1.97 5.401,-3.067 8.38,-3.067 3.158,0 5.629,1.739 5.629,4.44 l 0,0.093 c 0,2.744 -2.93,3.751 -6.18,4.669 -3.799,1.099 -8.011,2.242 -8.011,6.407 l 0,0.093 c 0,3.754 3.157,6.455 7.69,6.455 2.792,0 5.95,-1.007 8.288,-2.564 l -1.19,-1.876 c -2.154,1.418 -4.717,2.333 -7.19,2.333 -3.203,0 -5.31,-1.739 -5.31,-4.075 l 0,-0.091 c 0,-2.608 3.157,-3.57 6.503,-4.533 3.751,-1.05 7.69,-2.425 7.69,-6.545 l 0,-0.092 c 0,-4.165 -3.573,-6.82 -8.059,-6.82 C 6.18,-3.386 2.474,-2.013 0,0" style="fill:#434648;fill-opacity:1;fill-rule:nonzero;stroke:none" id="path60" inkscape:connector-curvature="0" />
    </g>
    <g id="g62" transform="matrix(1.25,0,0,-1.25,484.11784,518.92512)">
      <path d="M 0,0 0.817,0 2.02,-1.889 3.219,0 l 0.794,0 0,-3.987 -0.74,0 0,2.837 -1.227,-1.915 -0.079,0 -1.231,1.915 0,-2.837 L 0,-3.987 0,0 Z m -2.849,-0.699 -1.228,0 0,0.699 3.222,0 0,-0.699 -1.231,0 0,-3.288 -0.763,0 0,3.288 z" style="fill:#434648;fill-opacity:1;fill-rule:nonzero;stroke:none" id="path64" inkscape:connector-curvature="0" />
    </g>
    <g id="g66" transform="matrix(1.25,0,0,-1.25,69.161089,553.89461)">
      <path d="m 0,0 0,25.352 -7.779,0 0,6.077 24.603,0 0,-6.077 -8.594,0 L 8.23,0 0,0 Z" style="fill:#434648;fill-opacity:1;fill-rule:nonzero;stroke:none" id="path68" inkscape:connector-curvature="0" />
    </g>
    <g id="g70" transform="matrix(1.25,0,0,-1.25,93.316959,553.86161)">
      <path d="m 0,0 -7.838,0 0,23.052 7.838,0 0.062,-3.315 c 0.663,0.906 1.205,1.748 1.506,1.989 0.678,0.542 1.507,1.086 2.894,1.447 1.005,0.261 1.991,0.6 4.351,0.418 L 8.806,17.266 C 7.537,17.444 5.427,17.083 4.583,17.083 3.769,17.083 2.557,16.691 1.991,16.239 1.421,15.786 0.687,15.309 0.364,14.127 0.038,12.949 0,11.737 0,7.979 L 0,0 Z" style="fill:#434648;fill-opacity:1;fill-rule:nonzero;stroke:none" id="path72" inkscape:connector-curvature="0" />
    </g>
    <g id="g74" transform="matrix(1.25,0,0,-1.25,147.71521,526.89624)">
      <path d="m 0,0 -1.661,1.613 -9.237,0 L -9.34,0 0,0 Z" style="fill:#434648;fill-opacity:1;fill-rule:nonzero;stroke:none" id="path76" inkscape:connector-curvature="0" />
    </g>
    <g id="g78" transform="matrix(1.25,0,0,-1.25,151.04709,530.36311)">
      <path d="m 0,0 -1.658,1.618 -9.238,0 L -9.34,0 0,0 Z" style="fill:#434648;fill-opacity:1;fill-rule:nonzero;stroke:none" id="path80" inkscape:connector-curvature="0" />
    </g>
    <g id="g82" transform="matrix(1.25,0,0,-1.25,154.38021,533.72124)">
      <path d="m 0,0 -1.661,1.613 -9.235,0 L -9.34,0 0,0 Z" style="fill:#434648;fill-opacity:1;fill-rule:nonzero;stroke:none" id="path84" inkscape:connector-curvature="0" />
    </g>
    <g id="g86" transform="matrix(1.25,0,0,-1.25,157.78359,537.08299)">
      <path d="m 0,0 -1.658,1.615 -9.24,0 L -9.337,0 0,0 Z" style="fill:#434648;fill-opacity:1;fill-rule:nonzero;stroke:none" id="path88" inkscape:connector-curvature="0" />
    </g>
    <g id="g90" transform="matrix(1.25,0,0,-1.25,164.52246,543.80299)">
      <path d="m 0,0 -1.658,1.615 -9.24,0 L -9.34,0 0,0 Z" style="fill:#434648;fill-opacity:1;fill-rule:nonzero;stroke:none" id="path92" inkscape:connector-curvature="0" />
    </g>
    <g id="g94" transform="matrix(1.25,0,0,-1.25,161.12034,540.44361)">
      <path d="m 0,0 -1.664,1.616 -9.237,0 L -9.34,0 0,0 Z" style="fill:#434648;fill-opacity:1;fill-rule:nonzero;stroke:none" id="path96" inkscape:connector-curvature="0" />
    </g>
    <g id="g98" transform="matrix(1.25,0,0,-1.25,167.85684,547.15999)">
      <path d="m 0,0 -1.661,1.613 -9.237,0 L -9.34,0 0,0 Z" style="fill:#434648;fill-opacity:1;fill-rule:nonzero;stroke:none" id="path100" inkscape:connector-curvature="0" />
    </g>
    <g id="g102" transform="matrix(1.25,0,0,-1.25,171.18871,550.52049)">
      <path d="m 0,0 -1.661,1.616 -9.235,0 L -9.34,0 0,0 Z" style="fill:#434648;fill-opacity:1;fill-rule:nonzero;stroke:none" id="path104" inkscape:connector-curvature="0" />
    </g>
    <g id="g106" transform="matrix(1.25,0,0,-1.25,174.45897,553.82499)">
      <path d="m 0,0 -1.661,1.615 -9.235,0 L -9.338,0 0,0 Z" style="fill:#434648;fill-opacity:1;fill-rule:nonzero;stroke:none" id="path108" inkscape:connector-curvature="0" />
    </g>
    <g id="g110" transform="matrix(1.25,0,0,-1.25,134.04146,553.87874)">
      <path d="m 0,0 22.453,23.045 9.789,0 L 9.672,0 0,0 Z" style="fill:#434648;fill-opacity:1;fill-rule:nonzero;stroke:none" id="path112" inkscape:connector-curvature="0" />
    </g>
    <g id="g114" transform="matrix(1.25,0,0,-1.25,120.60221,524.59399)">
      <path d="m 0,0 c -12.751,0.031 -13.476,-9.708 -13.476,-11.998 0,-2.141 0.905,-11.939 13.657,-11.878 12.122,0.055 13.296,8.318 13.296,8.318 l -7.867,0 c 0,0 -0.725,-2.891 -5.61,-2.891 -4.885,0 -5.968,3.887 -5.968,5.244 l 19.718,0 c 0,0 1.537,13.17 -13.75,13.205 m -5.697,-8.503 c 0,0 0.09,3.799 5.516,3.799 5.881,0 5.969,-3.799 5.969,-3.799 l -11.485,0 z" style="fill:#434648;fill-opacity:1;fill-rule:nonzero;stroke:none" id="path116" inkscape:connector-curvature="0" />
    </g>
    <g id="g118" transform="matrix(1.25,0,0,-1.25,180.92447,528.71636)">
      <path d="m 0,0 c 0,-0.31 -0.221,-0.53 -0.637,-0.53 l -0.82,0 0,1.088 0.801,0 C -0.25,0.558 0,0.375 0,0.019 L 0,0 Z m 0.028,-1.101 c 0.473,0.174 0.801,0.552 0.801,1.148 l 0,0.019 C 0.829,0.395 0.722,0.675 0.522,0.879 0.259,1.136 -0.124,1.28 -0.625,1.28 l -1.649,0 0,-3.711 0.817,0 0,1.198 0.627,0 0.019,0 0.792,-1.198 0.953,0 -0.906,1.33 z" style="fill:#434648;fill-opacity:1;fill-rule:nonzero;stroke:none" id="path120" inkscape:connector-curvature="0" />
    </g>
    <g id="g122" transform="matrix(1.25,0,0,-1.25,179.88809,525.80624)">
      <path d="m 0,0 c -1.682,0 -2.994,-1.319 -2.994,-3.004 0,-1.691 1.305,-3.003 2.973,-3.003 1.68,0 2.996,1.319 2.996,3.003 C 2.975,-1.31 1.668,0 0,0 m -0.021,-6.596 c -1.972,0 -3.581,1.604 -3.581,3.574 0,1.998 1.618,3.608 3.602,3.608 1.972,0 3.581,-1.601 3.581,-3.57 0,-1.998 -1.616,-3.612 -3.602,-3.612" style="fill:#434648;fill-opacity:1;fill-rule:nonzero;stroke:none" id="path124" inkscape:connector-curvature="0" />
    </g>
  </g>
</svg>
