<?xml version="1.0" encoding="UTF-8" standalone="no"?>
<!-- Created with Inkscape (http://www.inkscape.org/) -->

<svg xmlns:dc="http://purl.org/dc/elements/1.1/" xmlns:cc="http://creativecommons.org/ns#" xmlns:rdf="http://www.w3.org/1999/02/22-rdf-syntax-ns#" xmlns:svg="http://www.w3.org/2000/svg" xmlns="http://www.w3.org/2000/svg" xmlns:sodipodi="http://sodipodi.sourceforge.net/DTD/sodipodi-0.dtd" xmlns:inkscape="http://www.inkscape.org/namespaces/inkscape" width="40.442444mm" height="10.896247mm" viewBox="0 0 143.3 38.608749" id="svg9843" version="1.1" inkscape:version="0.91 r13725" sodipodi:docname="partner-logo-ironshop.svg">
  <defs id="defs9845" />
  <sodipodi:namedview id="base" pagecolor="#ffffff" bordercolor="#666666" borderopacity="1.0" inkscape:pageopacity="0.0" inkscape:pageshadow="2" inkscape:zoom="0.35" inkscape:cx="-311.92143" inkscape:cy="210.73295" inkscape:document-units="px" inkscape:current-layer="layer1" showgrid="false" fit-margin-top="0" fit-margin-left="0" fit-margin-right="0" fit-margin-bottom="0" inkscape:window-width="1920" inkscape:window-height="1000" inkscape:window-x="1920" inkscape:window-y="27" inkscape:window-maximized="1" />
  <metadata id="metadata9848">
    <rdf:RDF>
      <cc:Work rdf:about="">
        <dc:format>image/svg+xml</dc:format>
        <dc:type rdf:resource="http://purl.org/dc/dcmitype/StillImage" />
        <dc:title></dc:title>
      </cc:Work>
    </rdf:RDF>
  </metadata>
  <g inkscape:label="Layer 1" inkscape:groupmode="layer" id="layer1" transform="translate(-254.06429,-704.4864)">
    <g id="g294" transform="matrix(1.25,0,0,-1.25,268.54429,719.04128)">
      <path d="m 0,0 0,0.843 4.723,0 0,-0.843 -1.922,0 0,-7.766 -0.879,0 L 1.922,0 0,0 Z" style="fill:#9aa2a1;fill-opacity:1;fill-rule:nonzero;stroke:none" id="path296" inkscape:connector-curvature="0" />
    </g>
    <g id="g298" transform="matrix(1.25,0,0,-1.25,277.15392,717.71677)">
      <path d="m 0,0 0.82,0 0,-3.6 c 0.332,0.438 0.698,0.764 1.096,0.981 0.398,0.217 0.83,0.325 1.295,0.325 0.477,0 0.899,-0.121 1.268,-0.363 0.37,-0.242 0.642,-0.567 0.818,-0.975 0.176,-0.407 0.264,-1.046 0.264,-1.916 l 0,-3.277 -0.821,0 0,3.037 c 0,0.733 -0.029,1.224 -0.088,1.469 -0.101,0.422 -0.286,0.738 -0.553,0.951 -0.268,0.213 -0.619,0.319 -1.052,0.319 -0.496,0 -0.941,-0.164 -1.333,-0.492 C 1.321,-3.868 1.062,-4.274 0.937,-4.758 0.859,-5.07 0.82,-5.647 0.82,-6.49 l 0,-2.335 -0.82,0 L 0,0 Z" style="fill:#9aa2a1;fill-opacity:1;fill-rule:nonzero;stroke:none" id="path300" inkscape:connector-curvature="0" />
    </g>
    <g id="g302" transform="matrix(1.25,0,0,-1.25,293.48929,723.96428)">
      <path d="M 0,0 C -0.109,0.437 -0.269,0.786 -0.479,1.048 -0.687,1.309 -0.964,1.52 -1.309,1.68 -1.652,1.84 -2.015,1.92 -2.394,1.92 -3.02,1.92 -3.558,1.719 -4.007,1.316 -4.336,1.024 -4.584,0.585 -4.752,0 L 0,0 Z M 0,-1.715 0.691,-2.077 C 0.465,-2.522 0.202,-2.881 -0.095,-3.154 -0.392,-3.427 -0.726,-3.635 -1.098,-3.777 -1.469,-3.92 -1.89,-3.991 -2.358,-3.991 c -1.04,0 -1.854,0.341 -2.44,1.021 -0.587,0.681 -0.88,1.45 -0.88,2.309 0,0.807 0.248,1.527 0.744,2.159 0.63,0.804 1.473,1.206 2.529,1.206 1.087,0 1.955,-0.412 2.603,-1.235 C 0.66,0.888 0.895,0.162 0.902,-0.708 l -5.736,0 c 0.016,-0.739 0.252,-1.346 0.71,-1.818 0.457,-0.473 1.022,-0.71 1.695,-0.71 0.325,0 0.641,0.056 0.948,0.17 0.306,0.112 0.568,0.261 0.783,0.448 0.215,0.186 0.448,0.488 0.698,0.903" style="fill:#9aa2a1;fill-opacity:1;fill-rule:nonzero;stroke:none" id="path304" inkscape:connector-curvature="0" />
    </g>
    <path d="m 301.95554,717.98765 2.03625,0 0,10.76 -2.03625,0 0,-10.76 z" style="fill:#9aa2a1;fill-opacity:1;fill-rule:nonzero;stroke:none" id="path306" inkscape:connector-curvature="0" />
    <g id="g308" transform="matrix(1.25,0,0,-1.25,309.60629,722.19427)">
      <path d="m 0,0 0.515,0 c 0.521,0 0.881,0.068 1.077,0.206 0.197,0.137 0.295,0.363 0.295,0.681 0,0.187 -0.049,0.351 -0.146,0.49 C 1.644,1.516 1.513,1.616 1.35,1.677 1.187,1.737 0.887,1.768 0.45,1.768 L 0,1.768 0,0 Z m -1.641,3.365 1.739,0 C 1.05,3.365 1.728,3.28 2.132,3.11 2.535,2.941 2.86,2.659 3.106,2.265 3.353,1.871 3.475,1.405 3.475,0.866 3.475,0.301 3.339,-0.172 3.067,-0.553 2.796,-0.933 2.387,-1.221 1.841,-1.416 l 2.041,-3.827 -1.793,0 -1.939,3.645 -0.15,0 0,-3.645 -1.641,0 0,8.608 z" style="fill:#9aa2a1;fill-opacity:1;fill-rule:nonzero;stroke:none" id="path310" inkscape:connector-curvature="0" />
    </g>
    <g id="g312" transform="matrix(1.25,0,0,-1.25,321.23954,719.72115)">
      <path d="m 0,0 c -0.798,0 -1.469,-0.277 -2.013,-0.831 -0.543,-0.554 -0.814,-1.259 -0.814,-2.112 0,-0.953 0.342,-1.705 1.026,-2.259 0.531,-0.434 1.142,-0.651 1.83,-0.651 0.779,0 1.441,0.282 1.989,0.843 0.546,0.563 0.821,1.255 0.821,2.078 0,0.82 -0.276,1.513 -0.827,2.08 C 1.46,-0.284 0.79,0 0,0 m 0.018,1.604 c 1.218,0 2.267,-0.442 3.145,-1.324 0.877,-0.881 1.316,-1.956 1.316,-3.223 0,-1.257 -0.433,-2.32 -1.298,-3.19 -0.867,-0.87 -1.916,-1.305 -3.152,-1.305 -1.294,0 -2.369,0.447 -3.225,1.34 -0.856,0.893 -1.283,1.954 -1.283,3.184 0,0.822 0.199,1.58 0.597,2.27 0.399,0.691 0.947,1.238 1.645,1.641 0.698,0.404 1.449,0.607 2.255,0.607" style="fill:#9aa2a1;fill-opacity:1;fill-rule:nonzero;stroke:none" id="path314" inkscape:connector-curvature="0" />
    </g>
    <g id="g316" transform="matrix(1.25,0,0,-1.25,329.05454,717.98777)">
      <path d="m 0,0 1.574,0 3.688,-5.665 0,5.665 1.64,0 0,-8.608 -1.578,0 -3.683,5.647 0,-5.647 L 0,-8.608 0,0 Z" style="fill:#9aa2a1;fill-opacity:1;fill-rule:nonzero;stroke:none" id="path318" inkscape:connector-curvature="0" />
    </g>
    <g id="g320" transform="matrix(1.25,0,0,-1.25,344.65754,726.7439)">
      <path d="m 0,0 0.732,0.439 c 0.516,-0.948 1.112,-1.422 1.788,-1.422 0.289,0 0.56,0.067 0.814,0.202 0.254,0.135 0.447,0.315 0.58,0.541 0.133,0.226 0.199,0.467 0.199,0.719 0,0.29 -0.097,0.573 -0.293,0.849 C 3.551,1.711 3.059,2.171 2.344,2.71 1.625,3.252 1.178,3.644 1.002,3.886 0.697,4.291 0.545,4.73 0.545,5.202 c 0,0.375 0.09,0.716 0.269,1.025 0.18,0.308 0.433,0.55 0.759,0.728 0.326,0.178 0.681,0.267 1.064,0.267 0.406,0 0.786,-0.101 1.139,-0.302 C 4.13,6.719 4.504,6.35 4.898,5.812 L 4.195,5.278 C 3.871,5.708 3.595,5.99 3.366,6.127 3.138,6.264 2.889,6.332 2.619,6.332 2.271,6.332 1.987,6.227 1.767,6.016 1.546,5.806 1.436,5.546 1.436,5.237 1.436,5.051 1.475,4.869 1.553,4.693 1.631,4.518 1.773,4.326 1.98,4.12 2.094,4.011 2.465,3.724 3.094,3.26 3.84,2.71 4.352,2.22 4.629,1.791 4.906,1.361 5.045,0.931 5.045,0.497 5.045,-0.127 4.808,-0.669 4.333,-1.129 3.858,-1.59 3.281,-1.82 2.602,-1.82 2.078,-1.82 1.604,-1.681 1.178,-1.401 0.752,-1.123 0.359,-0.655 0,0" style="fill:#9aa2a1;fill-opacity:1;fill-rule:nonzero;stroke:none" id="path322" inkscape:connector-curvature="0" />
    </g>
    <g id="g324" transform="matrix(1.25,0,0,-1.25,353.81766,717.71677)">
      <path d="m 0,0 0.82,0 0,-3.6 c 0.332,0.438 0.698,0.764 1.096,0.981 0.398,0.217 0.83,0.325 1.295,0.325 0.477,0 0.899,-0.121 1.268,-0.363 0.37,-0.242 0.642,-0.567 0.818,-0.975 0.176,-0.407 0.264,-1.046 0.264,-1.916 l 0,-3.277 -0.821,0 0,3.037 c 0,0.733 -0.029,1.224 -0.088,1.469 -0.101,0.422 -0.286,0.738 -0.553,0.951 -0.268,0.213 -0.619,0.319 -1.052,0.319 -0.496,0 -0.941,-0.164 -1.333,-0.492 C 1.321,-3.868 1.062,-4.274 0.937,-4.758 0.859,-5.07 0.82,-5.647 0.82,-6.49 l 0,-2.335 -0.82,0 L 0,0 Z" style="fill:#9aa2a1;fill-opacity:1;fill-rule:nonzero;stroke:none" id="path326" inkscape:connector-curvature="0" />
    </g>
    <g id="g328" transform="matrix(1.25,0,0,-1.25,367.16492,721.5864)">
      <path d="m 0,0 c -0.682,0 -1.268,-0.252 -1.758,-0.755 -0.49,-0.504 -0.735,-1.112 -0.735,-1.826 0,-0.46 0.112,-0.89 0.336,-1.287 0.222,-0.399 0.524,-0.705 0.905,-0.922 0.38,-0.217 0.798,-0.325 1.252,-0.325 0.455,0 0.872,0.108 1.253,0.325 0.38,0.217 0.682,0.523 0.905,0.922 0.224,0.397 0.335,0.827 0.335,1.287 0,0.714 -0.245,1.322 -0.737,1.826 C 1.264,-0.252 0.679,0 0,0 m 0.003,0.802 c 0.982,0 1.797,-0.356 2.442,-1.066 0.587,-0.647 0.88,-1.414 0.88,-2.299 0,-0.89 -0.309,-1.667 -0.929,-2.333 -0.621,-0.665 -1.418,-0.998 -2.393,-0.998 -0.978,0 -1.777,0.333 -2.398,0.998 -0.62,0.666 -0.93,1.443 -0.93,2.333 0,0.881 0.294,1.646 0.881,2.293 0.645,0.714 1.462,1.072 2.447,1.072" style="fill:#9aa2a1;fill-opacity:1;fill-rule:nonzero;stroke:none" id="path330" inkscape:connector-curvature="0" />
    </g>
    <g id="g332" transform="matrix(1.25,0,0,-1.25,377.76666,721.57177)">
      <path d="M 0,0 C -0.709,0 -1.307,-0.248 -1.792,-0.743 -2.277,-1.237 -2.52,-1.854 -2.52,-2.59 c 0,-0.483 0.109,-0.918 0.325,-1.304 0.216,-0.385 0.526,-0.691 0.929,-0.917 0.404,-0.226 0.829,-0.339 1.278,-0.339 0.44,0 0.854,0.114 1.242,0.342 0.388,0.228 0.696,0.546 0.927,0.955 0.229,0.41 0.344,0.838 0.344,1.287 0,0.452 -0.114,0.88 -0.341,1.286 C 1.955,-0.875 1.648,-0.561 1.263,-0.337 0.877,-0.112 0.456,0 0,0 m -3.281,0.626 0.82,0 0,-1.171 c 0.324,0.445 0.696,0.778 1.118,1.001 0.421,0.223 0.892,0.334 1.41,0.334 0.906,0 1.681,-0.326 2.325,-0.977 0.643,-0.652 0.965,-1.436 0.965,-2.353 0,-0.937 -0.319,-1.731 -0.957,-2.385 -0.637,-0.653 -1.408,-0.98 -2.309,-0.98 -0.507,0 -0.974,0.105 -1.399,0.316 -0.425,0.211 -0.81,0.525 -1.153,0.943 l 0,-3.424 -0.82,0 0,8.696 z" style="fill:#9aa2a1;fill-opacity:1;fill-rule:nonzero;stroke:none" id="path334" inkscape:connector-curvature="0" />
    </g>
    <path d="m 254.99429,742.16515 141.43875,0 0,-36.7475 -141.43875,0 0,36.7475 z m 142.37,0.93 -143.3,0 0,-38.60875 143.3,0 0,38.60875 z" style="fill:#9aa2a1;fill-opacity:1;fill-rule:nonzero;stroke:none" id="path336" inkscape:connector-curvature="0" />
  </g>
</svg>
