<?xml version="1.0" encoding="UTF-8" standalone="no"?>
<!-- Created with Inkscape (http://www.inkscape.org/) -->

<svg xmlns:dc="http://purl.org/dc/elements/1.1/" xmlns:cc="http://creativecommons.org/ns#" xmlns:rdf="http://www.w3.org/1999/02/22-rdf-syntax-ns#" xmlns:svg="http://www.w3.org/2000/svg" xmlns="http://www.w3.org/2000/svg" xmlns:sodipodi="http://sodipodi.sourceforge.net/DTD/sodipodi-0.dtd" xmlns:inkscape="http://www.inkscape.org/namespaces/inkscape" width="30.039629mm" height="9.5777569mm" viewBox="0 0 106.43963 33.936934" id="svg9182" version="1.1" inkscape:version="0.91 r13725" sodipodi:docname="partner-logo-trex.svg">
  <defs id="defs9184" />
  <sodipodi:namedview id="base" pagecolor="#ffffff" bordercolor="#666666" borderopacity="1.0" inkscape:pageopacity="0.0" inkscape:pageshadow="2" inkscape:zoom="0.35" inkscape:cx="-278.92304" inkscape:cy="56.968469" inkscape:document-units="px" inkscape:current-layer="layer1" showgrid="false" fit-margin-top="0" fit-margin-left="0" fit-margin-right="0" fit-margin-bottom="0" inkscape:window-width="1920" inkscape:window-height="1000" inkscape:window-x="1920" inkscape:window-y="27" inkscape:window-maximized="1" />
  <metadata id="metadata9187">
    <rdf:RDF>
      <cc:Work rdf:about="">
        <dc:format>image/svg+xml</dc:format>
        <dc:type rdf:resource="http://purl.org/dc/dcmitype/StillImage" />
        <dc:title></dc:title>
      </cc:Work>
    </rdf:RDF>
  </metadata>
  <g inkscape:label="Layer 1" inkscape:groupmode="layer" id="layer1" transform="translate(-221.0659,-555.39374)">
    <g id="g182" transform="matrix(1.25,0,0,-1.25,229.3509,588.86624)">
      <path d="m 0,0 0,21.599 -6.628,0 0,5.179 20.961,0 0,-5.179 -7.32,0 L 7.013,0 0,0 Z" style="fill:#9aa2a1;fill-opacity:1;fill-rule:nonzero;stroke:none" id="path184" inkscape:connector-curvature="0" />
    </g>
    <g id="g186" transform="matrix(1.25,0,0,-1.25,249.93191,588.84061)">
      <path d="m 0,0 -6.676,0 0,19.643 6.676,0 0.052,-2.827 c 0.565,0.771 1.027,1.489 1.283,1.697 0.577,0.46 1.285,0.924 2.467,1.232 0.857,0.222 1.697,0.513 3.707,0.355 L 7.501,14.711 C 6.422,14.864 4.625,14.555 3.905,14.555 3.211,14.555 2.178,14.223 1.696,13.837 1.212,13.452 0.585,13.044 0.309,12.038 0.032,11.033 0,10.001 0,6.798 L 0,0 Z" style="fill:#9aa2a1;fill-opacity:1;fill-rule:nonzero;stroke:none" id="path188" inkscape:connector-curvature="0" />
    </g>
    <g id="g190" transform="matrix(1.25,0,0,-1.25,296.27953,565.86324)">
      <path d="m 0,0 -1.416,1.373 -7.871,0 L -7.957,0 0,0 Z" style="fill:#9aa2a1;fill-opacity:1;fill-rule:nonzero;stroke:none" id="path192" inkscape:connector-curvature="0" />
    </g>
    <g id="g194" transform="matrix(1.25,0,0,-1.25,299.11778,568.81862)">
      <path d="m 0,0 -1.414,1.378 -7.869,0 L -7.958,0 0,0 Z" style="fill:#9aa2a1;fill-opacity:1;fill-rule:nonzero;stroke:none" id="path196" inkscape:connector-curvature="0" />
    </g>
    <g id="g198" transform="matrix(1.25,0,0,-1.25,301.95828,571.67999)">
      <path d="m 0,0 -1.414,1.375 -7.87,0 L -7.957,0 0,0 Z" style="fill:#9aa2a1;fill-opacity:1;fill-rule:nonzero;stroke:none" id="path200" inkscape:connector-curvature="0" />
    </g>
    <g id="g202" transform="matrix(1.25,0,0,-1.25,304.85753,574.54374)">
      <path d="m 0,0 -1.412,1.376 -7.872,0 L -7.955,0 0,0 Z" style="fill:#9aa2a1;fill-opacity:1;fill-rule:nonzero;stroke:none" id="path204" inkscape:connector-curvature="0" />
    </g>
    <g id="g206" transform="matrix(1.25,0,0,-1.25,310.59841,580.26999)">
      <path d="m 0,0 -1.414,1.376 -7.87,0 L -7.957,0 0,0 Z" style="fill:#9aa2a1;fill-opacity:1;fill-rule:nonzero;stroke:none" id="path208" inkscape:connector-curvature="0" />
    </g>
    <g id="g210" transform="matrix(1.25,0,0,-1.25,307.70053,577.40624)">
      <path d="m 0,0 -1.416,1.375 -7.871,0 L -7.958,0 0,0 Z" style="fill:#9aa2a1;fill-opacity:1;fill-rule:nonzero;stroke:none" id="path212" inkscape:connector-curvature="0" />
    </g>
    <g id="g214" transform="matrix(1.25,0,0,-1.25,313.43903,583.13012)">
      <path d="m 0,0 -1.414,1.375 -7.87,0 L -7.957,0 0,0 Z" style="fill:#9aa2a1;fill-opacity:1;fill-rule:nonzero;stroke:none" id="path216" inkscape:connector-curvature="0" />
    </g>
    <g id="g218" transform="matrix(1.25,0,0,-1.25,316.2784,585.99387)">
      <path d="m 0,0 -1.414,1.376 -7.868,0 L -7.957,0 0,0 Z" style="fill:#9aa2a1;fill-opacity:1;fill-rule:nonzero;stroke:none" id="path220" inkscape:connector-curvature="0" />
    </g>
    <g id="g222" transform="matrix(1.25,0,0,-1.25,319.06528,588.81012)">
      <path d="m 0,0 -1.416,1.376 -7.868,0 L -7.957,0 0,0 Z" style="fill:#9aa2a1;fill-opacity:1;fill-rule:nonzero;stroke:none" id="path224" inkscape:connector-curvature="0" />
    </g>
    <g id="g226" transform="matrix(1.25,0,0,-1.25,284.62916,588.85399)">
      <path d="m 0,0 19.129,19.634 8.341,0 L 8.241,0 0,0 Z" style="fill:#9aa2a1;fill-opacity:1;fill-rule:nonzero;stroke:none" id="path228" inkscape:connector-curvature="0" />
    </g>
    <g id="g230" transform="matrix(1.25,0,0,-1.25,273.17903,563.90286)">
      <path d="m 0,0 c -10.866,0.026 -11.483,-8.271 -11.483,-10.223 0,-1.823 0.773,-10.172 11.636,-10.119 10.327,0.048 11.33,7.088 11.33,7.088 l -6.705,0 c 0,0 -0.617,-2.465 -4.778,-2.465 -4.161,0 -5.085,3.312 -5.085,4.468 l 16.798,0 c 0,0 1.311,11.221 -11.713,11.251 m -4.855,-7.243 c 0,0 0.077,3.237 4.702,3.237 5.008,0 5.085,-3.237 5.085,-3.237 l -9.787,0 z" style="fill:#9aa2a1;fill-opacity:1;fill-rule:nonzero;stroke:none" id="path232" inkscape:connector-curvature="0" />
    </g>
    <g id="g234" transform="matrix(1.25,0,0,-1.25,324.57303,567.41599)">
      <path d="m 0,0 c 0,-0.265 -0.189,-0.45 -0.543,-0.45 l -0.697,0 0,0.926 0.681,0 C -0.214,0.476 0,0.32 0,0.017 L 0,0 Z m 0.024,-0.936 c 0.404,0.147 0.682,0.468 0.682,0.976 l 0,0.017 c 0,0.28 -0.091,0.518 -0.263,0.691 -0.223,0.22 -0.549,0.343 -0.975,0.343 l -1.406,0 0,-3.162 0.698,0 0,1.02 0.534,0 0.017,0 0.672,-1.02 0.814,0 -0.773,1.135 z" style="fill:#9aa2a1;fill-opacity:1;fill-rule:nonzero;stroke:none" id="path236" inkscape:connector-curvature="0" />
    </g>
    <g id="g238" transform="matrix(1.25,0,0,-1.25,323.69053,564.93674)">
      <path d="m 0,0 c -1.432,0 -2.552,-1.124 -2.552,-2.558 0,-1.444 1.112,-2.559 2.534,-2.559 1.432,0 2.553,1.123 2.553,2.559 C 2.535,-1.115 1.422,0 0,0 m -0.018,-5.617 c -1.68,0 -3.049,1.365 -3.049,3.043 0,1.703 1.377,3.074 3.067,3.074 1.683,0 3.052,-1.363 3.052,-3.042 0,-1.702 -1.378,-3.075 -3.07,-3.075" style="fill:#9aa2a1;fill-opacity:1;fill-rule:nonzero;stroke:none" id="path240" inkscape:connector-curvature="0" />
    </g>
  </g>
</svg>
