<?xml version="1.0" encoding="UTF-8" standalone="no"?>
<!-- Created with Inkscape (http://www.inkscape.org/) -->

<svg xmlns:dc="http://purl.org/dc/elements/1.1/" xmlns:cc="http://creativecommons.org/ns#" xmlns:rdf="http://www.w3.org/1999/02/22-rdf-syntax-ns#" xmlns:svg="http://www.w3.org/2000/svg" xmlns="http://www.w3.org/2000/svg" xmlns:sodipodi="http://sodipodi.sourceforge.net/DTD/sodipodi-0.dtd" xmlns:inkscape="http://www.inkscape.org/namespaces/inkscape" width="35.87664mm" height="9.8661366mm" viewBox="0 0 127.12195 34.958751" id="svg8521" version="1.1" inkscape:version="0.91 r13725" sodipodi:docname="partner-logo-mcohen.svg">
  <defs id="defs8523" />
  <sodipodi:namedview id="base" pagecolor="#ffffff" bordercolor="#666666" borderopacity="1.0" inkscape:pageopacity="0.0" inkscape:pageshadow="2" inkscape:zoom="0.35" inkscape:cx="-1134.2961" inkscape:cy="-28.234915" inkscape:document-units="px" inkscape:current-layer="layer1" showgrid="false" fit-margin-top="0" fit-margin-left="0" fit-margin-right="0" fit-margin-bottom="0" inkscape:window-width="1920" inkscape:window-height="1000" inkscape:window-x="1920" inkscape:window-y="27" inkscape:window-maximized="1" />
  <metadata id="metadata8526">
    <rdf:RDF>
      <cc:Work rdf:about="">
        <dc:format>image/svg+xml</dc:format>
        <dc:type rdf:resource="http://purl.org/dc/dcmitype/StillImage" />
        <dc:title></dc:title>
      </cc:Work>
    </rdf:RDF>
  </metadata>
  <g inkscape:label="Layer 1" inkscape:groupmode="layer" id="layer1" transform="translate(-1076.439,-469.16854)">
    <g id="g242" transform="matrix(1.25,0,0,-1.25,1076.439,504.12729)">
      <path d="m 0,0 4.051,27.967 0.459,0 11.502,-22.948 11.39,22.948 0.453,0 L 31.927,0 29.154,0 26.359,20 16.355,0 15.633,0 5.51,20.152 2.731,0 0,0 Z" style="fill:#9aa2a1;fill-opacity:1;fill-rule:nonzero;stroke:none" id="path244" inkscape:connector-curvature="0" />
    </g>
    <g id="g246" transform="matrix(1.25,0,0,-1.25,1135.9946,475.70692)">
      <path d="m 0,0 -1.021,-0.774 c -0.564,0.724 -1.241,1.274 -2.03,1.649 -0.79,0.374 -1.657,0.562 -2.602,0.562 -1.034,0 -1.99,-0.247 -2.871,-0.737 -0.88,-0.49 -1.563,-1.148 -2.047,-1.975 -0.484,-0.828 -0.726,-1.757 -0.726,-2.79 0,-1.561 0.541,-2.864 1.624,-3.909 1.083,-1.044 2.449,-1.566 4.099,-1.566 1.814,0 3.331,0.702 4.553,2.106 L 0,-8.199 c -0.646,-0.813 -1.452,-1.441 -2.417,-1.885 -0.966,-0.444 -2.045,-0.666 -3.236,-0.666 -2.266,0 -4.054,0.746 -5.363,2.237 -1.098,1.259 -1.647,2.78 -1.647,4.561 0,1.875 0.665,3.451 1.995,4.731 1.33,1.28 2.995,1.919 4.997,1.919 1.209,0 2.301,-0.236 3.276,-0.709 C -1.421,1.516 -0.623,0.853 0,0" style="fill:#9aa2a1;fill-opacity:1;fill-rule:nonzero;stroke:none" id="path248" inkscape:connector-curvature="0" />
    </g>
    <g id="g250" transform="matrix(1.25,0,0,-1.25,1148.1504,473.89042)">
      <path d="m 0,0 c -0.958,0 -1.867,-0.246 -2.725,-0.74 -0.859,-0.493 -1.529,-1.158 -2.011,-1.995 -0.482,-0.836 -0.723,-1.768 -0.723,-2.796 0,-1.522 0.533,-2.807 1.6,-3.855 1.067,-1.049 2.354,-1.572 3.859,-1.572 1.005,0 1.936,0.24 2.792,0.723 0.855,0.482 1.522,1.141 2.001,1.977 0.479,0.836 0.719,1.766 0.719,2.787 0,1.017 -0.24,1.936 -0.719,2.758 C 4.314,-1.892 3.639,-1.233 2.769,-0.74 1.899,-0.246 0.976,0 0,0 m -0.057,1.245 c 1.961,0 3.603,-0.647 4.925,-1.941 1.322,-1.294 1.983,-2.887 1.983,-4.779 0,-1.874 -0.66,-3.463 -1.978,-4.769 -1.319,-1.306 -2.927,-1.959 -4.825,-1.959 -1.921,0 -3.542,0.65 -4.863,1.95 -1.322,1.3 -1.983,2.872 -1.983,4.718 0,1.229 0.301,2.37 0.903,3.421 0.603,1.05 1.423,1.872 2.463,2.467 1.039,0.594 2.164,0.892 3.375,0.892" style="fill:#9aa2a1;fill-opacity:1;fill-rule:nonzero;stroke:none" id="path252" inkscape:connector-curvature="0" />
    </g>
    <g id="g254" transform="matrix(1.25,0,0,-1.25,1161.0655,472.73692)">
      <path d="m 0,0 1.294,0 0,-5.37 6.596,0 0,5.37 1.294,0 0,-12.804 -1.294,0 0,6.18 -6.596,0 0,-6.18 -1.294,0 L 0,0 Z" style="fill:#9aa2a1;fill-opacity:1;fill-rule:nonzero;stroke:none" id="path256" inkscape:connector-curvature="0" />
    </g>
    <g id="g258" transform="matrix(1.25,0,0,-1.25,1177.6243,472.73692)">
      <path d="m 0,0 7.423,0 0,-1.253 -6.129,0 0,-4.013 6.077,0 0,-1.254 -6.077,0 0,-5.031 6.077,0 0,-1.253 -7.371,0 L 0,0 Z" style="fill:#9aa2a1;fill-opacity:1;fill-rule:nonzero;stroke:none" id="path260" inkscape:connector-curvature="0" />
    </g>
    <g id="g262" transform="matrix(1.25,0,0,-1.25,1190.8372,488.74154)">
      <path d="m 0,0 0,12.804 0.282,0 8.62,-9.815 0,9.815 1.277,0 L 10.179,0 9.889,0 1.338,9.695 1.338,0 0,0 Z" style="fill:#9aa2a1;fill-opacity:1;fill-rule:nonzero;stroke:none" id="path264" inkscape:connector-curvature="0" />
    </g>
    <g id="g266" transform="matrix(1.25,0,0,-1.25,1126.1497,494.55579)">
      <path d="m 0,0 -0.759,-1.586 1.515,0 L 0,0 Z m 0.056,0.931 2.067,-4.381 -0.479,0 -0.697,1.441 -1.909,0 -0.69,-1.441 -0.494,0 2.093,4.381 0.109,0 z" style="fill:#9aa2a1;fill-opacity:1;fill-rule:nonzero;stroke:none" id="path268" inkscape:connector-curvature="0" />
    </g>
    <g id="g270" transform="matrix(1.25,0,0,-1.25,1130.051,498.86855)">
      <path d="m 0,0 0,4.381 0.096,0 2.95,-3.359 0,3.359 0.436,0 L 3.482,0 3.383,0 0.458,3.317 0.458,0 0,0 Z" style="fill:#9aa2a1;fill-opacity:1;fill-rule:nonzero;stroke:none" id="path272" inkscape:connector-curvature="0" />
    </g>
    <g id="g274" transform="matrix(1.25,0,0,-1.25,1136.6685,498.35092)">
      <path d="m 0,0 0.512,0 c 0.613,0 1.037,0.038 1.274,0.113 0.334,0.107 0.596,0.3 0.787,0.578 0.191,0.28 0.285,0.621 0.285,1.023 0,0.423 -0.103,0.783 -0.31,1.083 C 2.342,3.097 2.054,3.302 1.684,3.413 1.407,3.496 0.95,3.538 0.313,3.538 L 0,3.538 0,0 Z m -0.424,-0.414 0,4.381 0.918,0 C 1.157,3.967 1.638,3.914 1.937,3.809 2.367,3.66 2.703,3.401 2.945,3.034 3.187,2.667 3.308,2.229 3.308,1.722 3.308,1.282 3.212,0.896 3.02,0.562 2.828,0.229 2.579,-0.017 2.273,-0.176 1.966,-0.334 1.537,-0.414 0.985,-0.414 l -1.409,0 z" style="fill:#9aa2a1;fill-opacity:1;fill-rule:nonzero;stroke:none" id="path276" inkscape:connector-curvature="0" />
    </g>
    <g id="g278" transform="matrix(1.25,0,0,-1.25,1144.2106,497.84804)">
      <path d="m 0,0 0.376,0.223 c 0.265,-0.483 0.572,-0.724 0.919,-0.724 0.148,0 0.288,0.035 0.419,0.104 0.13,0.068 0.23,0.16 0.298,0.275 0.069,0.115 0.102,0.237 0.102,0.366 0,0.147 -0.05,0.291 -0.15,0.432 C 1.825,0.87 1.572,1.104 1.205,1.379 0.835,1.654 0.605,1.854 0.515,1.977 0.358,2.184 0.28,2.406 0.28,2.647 c 0,0.191 0.046,0.364 0.138,0.521 0.093,0.157 0.223,0.28 0.391,0.371 0.168,0.09 0.35,0.136 0.546,0.136 0.209,0 0.405,-0.052 0.586,-0.154 C 2.123,3.419 2.315,3.23 2.518,2.957 L 2.157,2.686 C 1.99,2.904 1.848,3.048 1.73,3.117 1.613,3.187 1.485,3.222 1.346,3.222 1.167,3.222 1.021,3.168 0.908,3.061 0.794,2.954 0.738,2.821 0.738,2.665 0.738,2.569 0.758,2.478 0.798,2.388 0.838,2.299 0.912,2.201 1.018,2.096 1.076,2.04 1.267,1.895 1.59,1.658 1.974,1.379 2.237,1.129 2.379,0.911 2.522,0.692 2.593,0.474 2.593,0.253 2.593,-0.064 2.472,-0.341 2.227,-0.575 1.983,-0.81 1.687,-0.927 1.337,-0.927 1.068,-0.927 0.824,-0.855 0.605,-0.714 0.386,-0.571 0.185,-0.334 0,0" style="fill:#9aa2a1;fill-opacity:1;fill-rule:nonzero;stroke:none" id="path280" inkscape:connector-curvature="0" />
    </g>
    <g id="g282" transform="matrix(1.25,0,0,-1.25,1151.6715,493.78792)">
      <path d="m 0,0 c -0.328,0 -0.639,-0.084 -0.933,-0.253 -0.293,-0.169 -0.523,-0.396 -0.687,-0.683 -0.165,-0.286 -0.248,-0.604 -0.248,-0.956 0,-0.52 0.183,-0.96 0.548,-1.319 0.365,-0.358 0.805,-0.538 1.32,-0.538 0.344,0 0.662,0.083 0.955,0.248 0.293,0.165 0.521,0.39 0.685,0.676 0.164,0.286 0.246,0.604 0.246,0.954 0,0.348 -0.082,0.662 -0.246,0.943 C 1.476,-0.646 1.245,-0.422 0.947,-0.253 0.649,-0.084 0.333,0 0,0 m -0.02,0.427 c 0.671,0 1.233,-0.222 1.685,-0.664 0.452,-0.444 0.679,-0.989 0.679,-1.636 0,-0.641 -0.226,-1.185 -0.677,-1.632 -0.452,-0.446 -1.001,-0.67 -1.65,-0.67 -0.658,0 -1.212,0.223 -1.664,0.667 -0.453,0.445 -0.679,0.984 -0.679,1.614 0,0.421 0.103,0.811 0.309,1.171 0.206,0.36 0.487,0.641 0.843,0.844 0.356,0.203 0.74,0.306 1.154,0.306" style="fill:#9aa2a1;fill-opacity:1;fill-rule:nonzero;stroke:none" id="path284" inkscape:connector-curvature="0" />
    </g>
    <g id="g286" transform="matrix(1.25,0,0,-1.25,1156.1015,498.86855)">
      <path d="m 0,0 0,4.381 0.096,0 2.95,-3.359 0,3.359 0.436,0 L 3.482,0 3.383,0 0.458,3.317 0.458,0 0,0 Z" style="fill:#9aa2a1;fill-opacity:1;fill-rule:nonzero;stroke:none" id="path288" inkscape:connector-curvature="0" />
    </g>
    <g id="g290" transform="matrix(1.25,0,0,-1.25,1161.616,497.84804)">
      <path d="m 0,0 0.376,0.223 c 0.265,-0.483 0.572,-0.724 0.918,-0.724 0.149,0 0.289,0.035 0.42,0.104 0.13,0.068 0.229,0.16 0.298,0.275 0.068,0.115 0.102,0.237 0.102,0.366 0,0.147 -0.05,0.291 -0.15,0.432 C 1.825,0.87 1.572,1.104 1.205,1.379 0.835,1.654 0.605,1.854 0.515,1.977 0.358,2.184 0.28,2.406 0.28,2.647 c 0,0.191 0.046,0.364 0.138,0.521 0.093,0.157 0.223,0.28 0.391,0.371 0.167,0.09 0.349,0.136 0.546,0.136 0.209,0 0.404,-0.052 0.586,-0.154 C 2.123,3.419 2.315,3.23 2.518,2.957 L 2.157,2.686 C 1.99,2.904 1.848,3.048 1.73,3.117 1.613,3.187 1.485,3.222 1.346,3.222 1.167,3.222 1.021,3.168 0.908,3.061 0.794,2.954 0.738,2.821 0.738,2.665 0.738,2.569 0.757,2.478 0.798,2.388 0.838,2.299 0.912,2.201 1.018,2.096 1.076,2.04 1.267,1.895 1.59,1.658 1.974,1.379 2.237,1.129 2.379,0.911 2.522,0.692 2.593,0.474 2.593,0.253 2.593,-0.064 2.471,-0.341 2.227,-0.575 1.983,-0.81 1.687,-0.927 1.337,-0.927 1.068,-0.927 0.824,-0.855 0.605,-0.714 0.386,-0.571 0.184,-0.334 0,0" style="fill:#9aa2a1;fill-opacity:1;fill-rule:nonzero;stroke:none" id="path292" inkscape:connector-curvature="0" />
    </g>
  </g>
</svg>
